<svg width="50" height="51" viewBox="0 0 50 51" fill="none" xmlns="http://www.w3.org/2000/svg">
<rect y="0.0447998" width="50" height="50" rx="25" fill="#A11D20"/>
<path d="M31 21.0448C31 19.4535 30.3679 17.9274 29.2426 16.8022C28.1174 15.6769 26.5913 15.0448 25 15.0448C23.4087 15.0448 21.8826 15.6769 20.7574 16.8022C19.6321 17.9274 19 19.4535 19 21.0448C19 28.0448 16 30.0448 16 30.0448H34C34 30.0448 31 28.0448 31 21.0448Z" stroke="white" stroke-width="2" stroke-linecap="round" stroke-linejoin="round"/>
<path d="M26.73 34.0448C26.5542 34.3479 26.3019 34.5995 25.9982 34.7743C25.6946 34.9492 25.3504 35.0413 25 35.0413C24.6496 35.0413 24.3054 34.9492 24.0018 34.7743C23.6982 34.5995 23.4458 34.3479 23.27 34.0448" stroke="white" stroke-width="2" stroke-linecap="round" stroke-linejoin="round"/>
</svg>
