<svg width="15" height="14" viewBox="0 0 15 14" fill="none" xmlns="http://www.w3.org/2000/svg">
<path fill-rule="evenodd" clip-rule="evenodd" d="M0 6.98907C0 6.74162 0.0982978 6.50431 0.273269 6.32934C0.44824 6.15437 0.685551 6.05607 0.932997 6.05607H11.7427L7.73641 2.05165C7.56122 1.87646 7.4628 1.63884 7.4628 1.39109C7.4628 1.14333 7.56122 0.905715 7.73641 0.730523C7.9116 0.555331 8.14921 0.456909 8.39697 0.456909C8.64473 0.456909 8.88234 0.555331 9.05754 0.730523L14.6555 6.32851C14.7424 6.41517 14.8113 6.51813 14.8584 6.63148C14.9054 6.74483 14.9296 6.86635 14.9296 6.98907C14.9296 7.11179 14.9054 7.2333 14.8584 7.34665C14.8113 7.46 14.7424 7.56296 14.6555 7.64963L9.05754 13.2476C8.88234 13.4228 8.64473 13.5212 8.39697 13.5212C8.14921 13.5212 7.9116 13.4228 7.73641 13.2476C7.56122 13.0724 7.4628 12.8348 7.4628 12.587C7.4628 12.3393 7.56122 12.1017 7.73641 11.9265L11.7427 7.92206H0.932997C0.685551 7.92206 0.44824 7.82377 0.273269 7.6488C0.0982978 7.47383 0 7.23651 0 6.98907Z" fill="#A11D20"/>
</svg>
