<svg width="15" height="15" viewBox="0 0 15 15" fill="none" xmlns="http://www.w3.org/2000/svg">
<path fill-rule="evenodd" clip-rule="evenodd" d="M0 7.49999C0 7.25255 0.0982978 7.01524 0.273269 6.84026C0.44824 6.66529 0.685551 6.567 0.932997 6.567H11.7427L7.73641 2.56257C7.56122 2.38738 7.4628 2.14977 7.4628 1.90201C7.4628 1.65425 7.56122 1.41664 7.73641 1.24145C7.9116 1.06626 8.14921 0.967834 8.39697 0.967834C8.64473 0.967834 8.88234 1.06626 9.05754 1.24145L14.6555 6.83943C14.7424 6.9261 14.8113 7.02906 14.8584 7.14241C14.9054 7.25576 14.9296 7.37727 14.9296 7.49999C14.9296 7.62271 14.9054 7.74423 14.8584 7.85758C14.8113 7.97093 14.7424 8.07389 14.6555 8.16055L9.05754 13.7585C8.88234 13.9337 8.64473 14.0322 8.39697 14.0322C8.14921 14.0322 7.9116 13.9337 7.73641 13.7585C7.56122 13.5833 7.4628 13.3457 7.4628 13.098C7.4628 12.8502 7.56122 12.6126 7.73641 12.4374L11.7427 8.43299H0.932997C0.685551 8.43299 0.44824 8.33469 0.273269 8.15972C0.0982978 7.98475 0 7.74744 0 7.49999Z" fill="white"/>
</svg>
